HIERARCHY
ROOT Hips
{
	OFFSET 0.000000 0.000000 0.000000
	CHANNELS 6 Xposition Yposition Zposition Xrotation Yrotation Zrotation
	JOINT LeftUpLeg_virtual
	{
		OFFSET 0.000000 0.000000 0.000000
		CHANNELS 3 Xrotation Yrotation Zrotation
		JOINT LeftUpLeg
		{
			OFFSET 15.427100 -6.655098 0.678600
			CHANNELS 3 Xrotation Yrotation Zrotation
			JOINT LeftLeg
			{
				OFFSET 4.081073 -39.591068 13.024000
				CHANNELS 3 Xrotation Yrotation Zrotation
				JOINT LeftFoot
				{
					OFFSET -4.081074 -37.707932 -15.979700
					CHANNELS 3 Xrotation Yrotation Zrotation
					JOINT LeftToeBase
					{
						OFFSET 5.346399 -15.068900 20.645000
						CHANNELS 3 Xrotation Yrotation Zrotation
						JOINT LeftToe_End
						{
							OFFSET 2.754700 0.931300 11.300900
							CHANNELS 3 Xrotation Yrotation Zrotation
							End Site
							{
								OFFSET 0 0 0
							}
						}
					}
				}
			}
		}
	}
	JOINT RightUpLeg_virtual
	{
		OFFSET 0.000000 0.000000 0.000000
		CHANNELS 3 Xrotation Yrotation Zrotation
		JOINT RightUpLeg
		{
			OFFSET -15.569500 -6.655098 0.678600
			CHANNELS 3 Xrotation Yrotation Zrotation
			JOINT RightLeg
			{
				OFFSET -4.081825 -39.591045 13.023800
				CHANNELS 3 Xrotation Yrotation Zrotation
				JOINT RightFoot
				{
					OFFSET 4.081824 -37.707954 -15.979600
					CHANNELS 3 Xrotation Yrotation Zrotation
					JOINT RightToeBase
					{
						OFFSET -5.346400 -15.068900 20.645000
						CHANNELS 3 Xrotation Yrotation Zrotation
						JOINT RightToe_End
						{
							OFFSET -2.754700 0.931300 11.300900
							CHANNELS 3 Xrotation Yrotation Zrotation
							End Site
							{
								OFFSET 0 0 0
							}
						}
					}
				}
			}
		}
	}
	JOINT Spine_virtual
	{
		OFFSET 0.000000 0.000000 0.000000
		CHANNELS 3 Xrotation Yrotation Zrotation
		JOINT Spine
		{
			OFFSET -0.279200 12.230698 -2.892100
			CHANNELS 3 Xrotation Yrotation Zrotation
			JOINT Spine1
			{
				OFFSET -0.232667 10.192268 -1.242267
				CHANNELS 3 Xrotation Yrotation Zrotation
				JOINT Spine1_split
				{
					OFFSET -0.232667 10.192268 -1.242267
					CHANNELS 3 Xrotation Yrotation Zrotation
					JOINT Spine2
					{
						OFFSET -0.232667 10.192268 -1.242267
						CHANNELS 3 Xrotation Yrotation Zrotation
						JOINT Neck_virtual
						{
							OFFSET 0.000000 0.000000 0.000000
							CHANNELS 3 Xrotation Yrotation Zrotation
							JOINT Neck
							{
								OFFSET -0.418800 17.814194 8.416900
								CHANNELS 3 Xrotation Yrotation Zrotation
								JOINT Head
								{
									OFFSET 0.000000 7.031097 3.806800
									CHANNELS 3 Xrotation Yrotation Zrotation
									JOINT HeadTop_End
									{
										OFFSET 0.000000 24.646606 12.978600
										CHANNELS 3 Xrotation Yrotation Zrotation
										End Site
										{
											OFFSET 0 0 0
										}
									}
								}
							}
						}
						JOINT LeftShoulder_virtual
						{
							OFFSET 0.000000 0.000000 0.000000
							CHANNELS 3 Xrotation Yrotation Zrotation
							JOINT LeftShoulder
							{
								OFFSET 8.476499 7.247704 -3.868750
								CHANNELS 3 Xrotation Yrotation Zrotation
								JOINT LeftShoulder_split
								{
									OFFSET 8.476499 7.247704 -3.868750
									CHANNELS 3 Xrotation Yrotation Zrotation
									JOINT LeftArm
									{
										OFFSET 9.308998 -2.777710 0.208600
										CHANNELS 3 Xrotation Yrotation Zrotation
										JOINT LeftForeArm
										{
											OFFSET 29.972298 0.000000 0.000000
											CHANNELS 3 Xrotation Yrotation Zrotation
											JOINT LeftHand
											{
												OFFSET 26.026505 0.000000 0.000000
												CHANNELS 3 Xrotation Yrotation Zrotation
												End Site
												{
													OFFSET 0 0 0
												}
											}
										}
									}
								}
							}
						}
						JOINT RightShoulder_virtual
						{
							OFFSET 0.000000 0.000000 0.000000
							CHANNELS 3 Xrotation Yrotation Zrotation
							JOINT RightShoulder
							{
								OFFSET -7.570500 7.247704 -3.868750
								CHANNELS 3 Xrotation Yrotation Zrotation
								JOINT RightShoulder_split
								{
									OFFSET -7.570500 7.247704 -3.868750
									CHANNELS 3 Xrotation Yrotation Zrotation
									JOINT RightArm
									{
										OFFSET -9.308998 -2.777710 0.208500
										CHANNELS 3 Xrotation Yrotation Zrotation
										JOINT RightForeArm
										{
											OFFSET -29.972300 0.000000 0.000000
											CHANNELS 3 Xrotation Yrotation Zrotation
											JOINT RightHand
											{
												OFFSET -26.026505 0.000000 0.000000
												CHANNELS 3 Xrotation Yrotation Zrotation
												End Site
												{
													OFFSET 0 0 0
												}
											}
										}
									}
								}
							}
						}
					}
				}
			}
		}
	}
}
MOTION
Frames: 10
Frame Time: 0.03333333
-0.430213 96.295479 -13.947725 0.000000 0.000000 0.000000 -5.551212 -3.264062 4.251144 -4.498160 16.692139 -5.491423 12.670863 1.065446 5.430998 -4.033545 1.410248 -2.238681 0.271935 -2.179276 0.109339 0.000000 0.000000 0.000000 -5.514785 -3.806555 4.105733 -3.805449 -10.714315 -6.241110 18.015386 4.008551 -3.091324 -10.822601 -16.098867 10.725296 0.013474 4.802051 -14.227788 0.000000 0.000000 0.000000 -6.893583 3.040073 4.653182 7.601113 -5.671247 -1.913277 9.667362 2.792760 -3.186590 0.067727 -0.879164 -0.046029 0.000000 0.000000 0.000000 10.917905 4.657745 -1.794054 3.577496 2.185564 6.771006 13.383669 -44.937136 2.313341 0.000000 0.000000 0.000000 9.968753 4.286138 -2.777137 1.074221 -9.870259 -23.533620 4.674689 -9.789266 -5.168860 -4.674640 -54.581438 -38.860307 13.908990 -15.608762 13.429424 0.000000 0.000000 0.000000 9.151120 2.697286 -3.567367 -1.371542 19.938492 23.685935 -6.836602 -2.583675 4.532211 0.482635 39.863320 46.064172 14.607965 29.274597 1.717940 0.000000 0.000000 0.000000 
0.122757 97.015442 -13.992907 0.000000 0.000000 0.000000 -6.539178 -4.317027 5.176589 -1.283182 17.882562 -6.983919 9.615440 0.925803 5.102202 -3.899761 1.431868 -2.081184 1.760226 -2.102355 0.255813 0.000000 0.000000 0.000000 -6.510863 -4.137786 4.988570 -1.880215 -11.702647 -7.271324 16.037171 4.312468 -2.677597 -11.257899 -15.298705 9.388957 0.630169 4.491194 -13.892628 0.000000 0.000000 0.000000 -8.225196 2.533879 5.130422 7.280504 -5.352576 -2.359470 8.487425 2.217340 -3.390155 0.139925 -0.885810 0.065738 0.000000 0.000000 0.000000 9.904264 4.118847 -1.777098 3.452342 2.662980 6.025685 11.901260 -41.611148 3.726801 0.000000 0.000000 0.000000 8.683044 3.817794 -2.740958 1.752087 -7.261077 -20.539128 3.954281 -9.097819 -3.997532 -5.898269 -52.003851 -44.292247 14.929327 -13.257074 14.903594 0.000000 0.000000 0.000000 7.768840 2.065624 -3.526304 -0.041310 18.220108 21.538616 -7.551928 -3.148169 3.322832 4.417185 42.708592 46.640452 16.465530 31.289431 0.490860 0.000000 0.000000 0.000000 
0.518538 97.412743 -13.915216 0.000000 0.000000 0.000000 -7.177723 -5.271943 5.921163 1.165380 18.473570 -8.079328 7.528465 0.854164 4.741961 -3.832975 1.473014 -1.719698 2.819859 -1.985193 0.161016 0.000000 0.000000 0.000000 -7.238971 -4.348117 5.787206 -0.840370 -12.672615 -8.420150 14.944809 4.770972 -2.277438 -11.240073 -14.691001 9.379131 0.160891 4.390750 -14.145362 0.000000 0.000000 0.000000 -8.974314 2.076476 5.330317 6.807190 -4.985099 -2.715530 7.464650 1.770605 -3.551906 0.145217 -0.821589 0.159486 0.000000 0.000000 0.000000 9.086968 3.706270 -1.781948 3.717010 2.849482 5.276970 8.913759 -39.216778 4.180648 0.000000 0.000000 0.000000 7.501493 3.458935 -2.737555 2.239164 -5.521967 -16.771306 3.664421 -8.452957 -2.859075 -5.613045 -48.028490 -48.248863 17.178283 -13.038764 16.434378 0.000000 0.000000 0.000000 6.388708 1.596800 -3.386188 1.298352 15.815569 18.630598 -7.912469 -3.957821 2.343182 7.220490 43.889402 47.480320 17.486244 34.732110 0.090182 0.000000 0.000000 0.000000 
0.778631 97.545006 -13.807920 0.000000 0.000000 0.000000 -7.598124 -5.973496 6.389622 2.510691 18.580046 -8.590169 6.680277 0.769258 4.401899 -3.554181 1.384844 -1.407625 3.150339 -1.838602 -0.213373 0.000000 0.000000 0.000000 -7.727767 -4.493869 6.352861 -0.535796 -13.379411 -9.554279 14.613752 5.466731 -1.937326 -10.849378 -14.163528 10.630532 -1.030745 4.452356 -14.754628 0.000000 0.000000 0.000000 -9.219551 1.576679 5.309067 6.170398 -4.487835 -2.779858 6.654389 1.505441 -3.676971 0.158266 -0.792283 0.202087 0.000000 0.000000 0.000000 8.475404 3.458237 -1.823275 4.040730 2.757066 4.608498 4.558663 -37.584677 3.448971 0.000000 0.000000 0.000000 6.527102 3.209206 -2.858963 2.557673 -4.945941 -12.862815 3.463475 -7.807011 -2.344092 -4.645286 -42.529744 -50.974914 20.532867 -14.000836 17.885914 0.000000 0.000000 0.000000 5.153196 1.372380 -3.199070 2.423912 13.104182 15.369333 -8.480727 -4.720694 1.975635 8.614466 43.374372 48.473801 17.415514 37.685371 0.824213 0.000000 0.000000 0.000000 
1.078869 97.497627 -13.643255 0.000000 0.000000 0.000000 -7.875794 -6.321898 6.552899 2.866142 18.371732 -8.638809 6.905882 0.733583 4.144969 -3.171019 1.202247 -1.032642 2.965923 -1.695138 -0.671833 0.000000 0.000000 0.000000 -8.023012 -4.692061 6.608570 -0.571810 -13.790154 -10.469004 14.874211 6.101227 -1.696133 -10.575650 -13.879130 12.129578 -1.295639 4.454272 -15.395135 0.000000 0.000000 0.000000 -9.093885 1.000884 5.189324 5.448030 -3.863563 -2.481872 6.052906 1.400908 -3.768747 0.128466 -0.800905 0.207204 0.000000 0.000000 0.000000 8.044003 3.339592 -1.906659 4.150729 2.436091 4.055719 -0.657262 -36.428961 1.611920 0.000000 0.000000 0.000000 5.736931 3.050631 -3.126122 2.743960 -5.454368 -9.617093 2.986849 -7.017394 -2.099082 -4.126992 -35.756573 -53.045261 24.544601 -14.464280 18.932275 0.000000 0.000000 0.000000 4.213449 1.373326 -2.997040 3.146962 10.470222 12.203212 -9.212302 -5.056713 2.248414 8.776878 41.464856 49.249680 16.205404 38.695218 2.735320 0.000000 0.000000 0.000000 
1.342458 97.332275 -13.415789 0.000000 0.000000 0.000000 -8.058474 -6.321018 6.449301 2.464301 18.071400 -8.339355 7.720145 0.723607 3.939908 -2.733075 0.934361 -0.739767 2.890516 -1.556634 -1.138577 0.000000 0.000000 0.000000 -8.146070 -4.899284 6.580254 -0.692465 -13.869799 -10.977314 15.448809 6.459051 -1.529791 -10.939531 -14.006543 13.079023 0.223039 4.248221 -15.853590 0.000000 0.000000 0.000000 -8.818389 0.413608 5.057589 4.631103 -3.168446 -1.895286 5.643596 1.393661 -3.813334 0.133450 -0.799681 0.185883 0.000000 0.000000 0.000000 7.665176 3.279593 -2.004396 3.977454 1.927427 3.620119 -5.841946 -35.304029 -0.870669 0.000000 0.000000 0.000000 5.119958 2.916820 -3.488585 2.861294 -6.853359 -7.330665 2.388278 -6.148783 -1.850768 -4.810784 -27.908730 -55.005494 28.291993 -13.430897 19.114873 0.000000 0.000000 0.000000 3.673891 1.508956 -2.801301 3.511034 8.254893 9.648242 -9.934415 -5.056109 2.937878 7.785085 38.624949 49.757761 14.427750 37.899384 5.293339 0.000000 0.000000 0.000000 
1.542823 97.103241 -13.170301 0.000000 0.000000 0.000000 -8.155452 -6.179359 6.219841 1.790973 17.807456 -7.873437 8.461499 0.714422 3.779656 -2.369232 0.565335 -0.613931 2.754584 -1.436607 -1.356669 0.000000 0.000000 0.000000 -8.142316 -4.970217 6.354843 -0.743348 -13.650505 -11.156630 16.087411 6.519451 -1.371417 -11.695030 -14.491814 13.524937 2.369373 3.962074 -16.081660 0.000000 0.000000 0.000000 -8.588513 -0.045780 4.968142 3.791419 -2.461048 -1.225320 5.379698 1.395671 -3.789274 0.178714 -0.785775 0.134068 0.000000 0.000000 0.000000 7.274624 3.201601 -2.067261 3.594800 1.269936 3.298292 -10.380141 -33.973743 -3.465134 0.000000 0.000000 0.000000 4.584122 2.746503 -3.809736 2.860693 -8.562656 -6.034433 1.411231 -5.417741 -1.224577 -6.454878 -19.308424 -56.889841 31.346125 -11.217083 18.308933 0.000000 0.000000 0.000000 3.509005 1.635727 -2.615537 3.649989 6.527157 8.127666 -10.655829 -4.689183 3.591979 6.077350 35.201279 50.164113 12.870283 36.092106 7.829850 0.000000 0.000000 0.000000 
1.669034 96.867203 -12.841318 0.000000 0.000000 0.000000 -8.172520 -6.037856 5.949058 1.413748 17.634387 -7.445725 8.793079 0.755038 3.693015 -2.215586 0.235350 -0.569350 2.501599 -1.362183 -1.245563 0.000000 0.000000 0.000000 -8.065101 -4.924729 6.061081 -0.703793 -13.208072 -11.190070 16.721328 6.392516 -1.221456 -12.169047 -15.194084 13.962145 3.601969 3.780741 -16.151523 0.000000 0.000000 0.000000 -8.489655 -0.251907 4.944429 2.964337 -1.843437 -0.676246 5.173677 1.346521 -3.707200 0.207681 -0.663148 0.106502 0.000000 0.000000 0.000000 6.860455 3.054252 -2.069714 3.102080 0.522720 3.055569 -13.683889 -32.676793 -5.692953 0.000000 0.000000 0.000000 4.066179 2.522974 -3.995848 2.747213 -10.191400 -5.523742 0.705329 -4.923883 -0.350575 -8.638586 -10.630366 -58.683408 33.748846 -8.918727 16.828671 0.000000 0.000000 0.000000 3.586703 1.664712 -2.420631 3.610641 5.303245 7.770662 -11.098039 -4.145532 4.058597 4.342721 31.294004 50.432061 11.865030 34.190650 9.982654 0.000000 0.000000 0.000000 
1.680675 96.695610 -12.505575 0.000000 0.000000 0.000000 -8.159945 -5.982800 5.719611 1.500600 17.571492 -7.148136 8.798837 0.806470 3.708184 -2.191950 0.012667 -0.705467 2.321037 -1.333724 -0.994207 0.000000 0.000000 0.000000 -8.022865 -4.815409 5.799718 -0.641429 -12.629748 -11.203447 17.096426 6.274100 -1.100595 -12.140829 -15.870662 14.759781 3.628755 3.706300 -16.143244 0.000000 0.000000 0.000000 -8.510512 -0.188556 4.965487 2.167917 -1.352514 -0.385927 4.992473 1.217699 -3.563921 0.255273 -0.499820 0.050116 0.000000 0.000000 0.000000 6.423770 2.840582 -2.018985 2.586847 -0.242332 2.877295 -15.744021 -31.745271 -7.248825 0.000000 0.000000 0.000000 3.623226 2.245885 -3.989857 2.561154 -11.543701 -5.291035 0.353586 -4.507127 0.389474 -10.240722 -2.439434 -60.392642 35.515420 -7.424007 15.138040 0.000000 0.000000 0.000000 3.749237 1.573290 -2.226003 3.463441 4.598975 8.576582 -11.621849 -4.043154 3.928645 2.839489 27.196485 50.923814 11.451706 32.658232 11.666204 0.000000 0.000000 0.000000 
1.618729 96.581276 -12.122889 0.000000 0.000000 0.000000 -8.166300 -6.000294 5.588124 2.012401 17.588430 -7.017494 8.645931 0.893848 3.832128 -2.377653 -0.072535 -0.929874 2.089544 -1.346663 -0.672808 0.000000 0.000000 0.000000 -8.035382 -4.729788 5.606189 -0.514706 -12.034093 -11.274042 17.160705 6.184091 -1.015110 -11.984375 -16.441596 15.668206 3.127192 3.621288 -15.999378 0.000000 0.000000 0.000000 -8.661216 0.056459 5.021118 1.454059 -0.977612 -0.420363 4.820605 1.022760 -3.402564 0.244490 -0.334096 0.013597 0.000000 0.000000 0.000000 6.062289 2.610487 -1.941983 2.087731 -0.936468 2.753208 -16.947048 -31.359246 -8.161693 0.000000 0.000000 0.000000 3.279768 1.959203 -3.813815 2.344470 -12.559245 -5.048912 0.595989 -4.271479 0.969496 -10.337765 4.234013 -62.077615 36.905677 -7.168659 13.594774 0.000000 0.000000 0.000000 3.869901 1.406193 -2.042626 3.179868 4.348282 10.144240 -12.287363 -3.906778 3.327879 1.837382 23.247030 51.626135 11.385901 31.161147 13.009560 0.000000 0.000000 0.000000 
